<svg version="1.1" xmlns="http://www.w3.org/2000/svg" xmlns:xlink="http://www.w3.org/1999/xlink" width="388.000000pt" height="379.000000pt" viewBox="0,0,256,250.05"><g fill="#0034ff" fill-rule="nonzero" stroke="none" stroke-width="1" stroke-linecap="butt" stroke-linejoin="miter" stroke-miterlimit="10" stroke-dasharray="" stroke-dashoffset="0" font-family="none" font-weight="none" font-size="none" text-anchor="none" style="mix-blend-mode: normal"><g transform="translate(7.87029,12.4637) scale(0.65979,0.65979)"><g transform="translate(0,379) scale(0.1,-0.1)"><path d="M2914,3767c-15,-40 2,-52 212,-152l210,-100l-1308,-3c-1290,-2 -1307,-2 -1318,-22c-8,-15 -6,-24 10,-40c19,-19 32,-20 433,-20c228,0 786,-3 1241,-7l826,-6l-130,-63c-125,-60 -131,-65 -128,-91c2,-21 9,-29 28,-31c14,-1 133,38 265,87c334,125 317,117 313,149c-3,24 -27,38 -293,165c-299,143 -350,162 -361,134z"></path><path d="M290,3250c-19,-19 -20,-32 -20,-433c0,-228 -3,-786 -7,-1241l-6,-826l-63,130c-60,125 -65,131 -91,128c-21,-2 -29,-9 -31,-28c-1,-14 38,-133 87,-265c125,-334 117,-317 149,-313c24,3 38,27 165,293c89,186 140,303 141,325c1,32 -1,35 -29,35c-28,0 -32,-6 -130,-211l-100,-210l-3,1308c-2,1290 -2,1307 -22,1318c-15,8 -24,6 -40,-10z"></path><path d="M740,1780v-1390h1390h1390v1390v1390h-1390h-1390zM3440,1780v-1310h-1310h-1310v1310v1310h1310h1310z"></path><path d="M1482,1833l3,-268l32,-3l32,-3l3,87l3,87l73,-86c61,-72 78,-87 102,-87c16,0 31,3 33,8c3,4 -30,49 -74,101c-43,51 -79,94 -79,96c0,2 32,34 70,71c39,37 70,71 70,76c0,4 -15,8 -32,8c-27,0 -45,-12 -100,-67l-68,-67v157v157h-35h-35z"></path><path d="M1895,2058c-41,-15 -55,-27 -55,-49c0,-24 21,-24 70,1c67,34 112,22 136,-36c29,-70 -9,-150 -135,-286c-48,-51 -81,-95 -81,-107c0,-21 3,-21 157,-19c141,3 158,5 161,21c3,15 -8,17 -118,17h-121l81,92c99,112 130,169 130,238c0,65 -22,108 -65,126c-40,16 -116,17 -160,2z"></path><path d="M2346,1909c-21,-17 -26,-18 -26,-5c0,12 -10,16 -35,16h-35l2,-177l3,-178l33,-3l32,-3v132v132l36,33c43,41 63,42 95,8c22,-24 24,-34 27,-165l4,-139h29h29v128c0,105 3,131 18,148c28,35 69,56 92,49c37,-12 50,-63 50,-200v-125h31h30l-3,156l-3,156l-33,29c-44,40 -116,41 -161,3l-31,-26l-31,26c-40,34 -113,36 -153,5z"></path></g></g></g></svg>