<svg version="1.1" xmlns="http://www.w3.org/2000/svg" xmlns:xlink="http://www.w3.org/1999/xlink" width="310.000000pt" height="102.000000pt" viewBox="0,0,256,84.225"><g fill-opacity="0.92941" fill="#000000" fill-rule="nonzero" stroke="none" stroke-width="1" stroke-linecap="butt" stroke-linejoin="miter" stroke-miterlimit="10" stroke-dasharray="" stroke-dashoffset="0" font-family="none" font-weight="none" font-size="none" text-anchor="none" style="mix-blend-mode: normal"><g transform="translate(-0.00054,-0.0038) scale(1,1.00009)"><g><g transform="translate(2.89032,2.47379) scale(0.82581,0.82581)"><g transform="translate(0,102) scale(0.1,-0.1)"><path d="M10,780v-220h235h235v220v220h-235h-235zM303,916c34,-14 70,-50 80,-78c5,-15 0,-18 -29,-18c-21,0 -47,9 -61,20c-33,25 -54,25 -87,-1c-19,-15 -26,-29 -26,-57c0,-73 73,-107 120,-57c23,24 73,34 84,17c11,-18 -30,-78 -64,-94c-130,-65 -263,61 -206,195c30,71 115,105 189,73z"></path><path d="M520,780v-220h235h235v220v220h-235h-235zM860,890c0,-28 -3,-30 -35,-30h-35v-116v-115l-37,3l-38,3l-3,113l-3,112h-34c-32,0 -35,2 -35,30v30h110h110z"></path><path d="M1030,780v-220h235h235v220v220h-235h-235zM1388,777l3,-147h-41h-40v72v72l-74,-73c-102,-102 -106,-99 -106,79v140h40h40v-65c0,-36 3,-65 8,-65c4,0 39,32 77,70c38,39 74,69 80,67c6,-2 11,-62 13,-150z"></path><path d="M1530,780v-220h240h240v220v220h-240h-240zM1849,894c50,-42 51,-114 1,-164c-15,-15 -33,-20 -70,-20h-50v-40v-40h-40h-40v145v145h84c76,0 88,-3 115,-26z"></path><path d="M1730,819v-40l38,3c30,2 38,7 40,26c5,32 -15,52 -49,52c-27,0 -29,-3 -29,-41z"></path><path d="M2040,780v-220h235h235v220v220h-235h-235zM2230,864c0,-53 1,-55 23,-49c31,10 47,33 47,72c0,32 1,33 40,33h40v-44c0,-33 -7,-52 -26,-75l-26,-31l36,-59c20,-32 36,-64 36,-70c0,-6 -17,-11 -39,-11c-37,0 -41,3 -71,55c-17,30 -38,55 -46,55c-10,0 -14,-14 -14,-55v-55h-40h-40v145v145h40h40z"></path><path d="M2550,780v-220h235h235v220v220h-235h-235zM2868,792c34,-75 62,-143 62,-150c0,-7 -14,-12 -34,-12c-26,0 -36,5 -41,20c-5,17 -15,20 -67,20c-51,0 -61,-3 -65,-20c-4,-16 -14,-20 -45,-20c-47,0 -48,-5 24,149c27,58 54,116 59,129c20,50 42,26 107,-116z"></path><path d="M2771,768c-6,-17 -11,-33 -11,-34c0,-2 13,-4 29,-4c29,0 30,1 19,30c-14,42 -24,45 -37,8z"></path><path d="M10,300v-220h235h235v220v220h-235h-235zM200,395c0,-47 3,-55 19,-55c26,0 38,18 46,68c7,41 7,42 47,42h40l-4,-55c-3,-40 -11,-62 -28,-80l-23,-25l36,-59c21,-32 37,-64 37,-70c0,-6 -19,-11 -44,-11c-43,0 -45,1 -75,55c-17,30 -36,55 -41,55c-6,0 -10,-25 -10,-55v-55h-45h-45v143c0,79 3,147 7,150c3,4 24,7 45,7h38z"></path><path d="M520,300v-220h235h235v220v220h-235h-235zM838,423c47,-35 63,-66 64,-121c0,-95 -54,-154 -144,-156c-101,-1 -167,70 -155,170c9,86 73,138 160,131c27,-2 60,-13 75,-24z"></path><path d="M705,350c-40,-44 -10,-130 45,-130c34,0 70,39 70,76c0,65 -74,99 -115,54z"></path><path d="M1030,300v-220h230h230v220v220h-230h-230zM1334,421c30,-28 40,-65 26,-91c-8,-15 -7,-26 6,-45c22,-34 11,-88 -23,-115c-21,-17 -40,-20 -114,-20h-89v143c0,79 3,147 8,151c4,5 42,6 85,4c63,-4 82,-9 101,-27z"></path><path d="M1220,349c0,-16 5,-20 27,-17c17,2 29,10 31,21c3,13 -3,17 -27,17c-25,0 -31,-4 -31,-21z"></path><path d="M1220,240c0,-18 5,-21 38,-18c25,2 37,8 37,18c0,10 -12,16 -37,18c-33,3 -38,0 -38,-18z"></path><path d="M1540,300v-220h230h230v220v220h-230h-230zM1825,436c54,-23 79,-89 55,-150c-13,-35 -66,-66 -112,-66c-37,0 -38,-1 -38,-35c0,-34 -1,-35 -40,-35h-40v150v150h70c39,0 86,-6 105,-14z"></path><path d="M1730,335c0,-33 2,-35 34,-35c36,0 51,18 41,51c-5,14 -16,19 -41,19c-32,0 -34,-2 -34,-35z"></path><path d="M2050,300v-220h230h230v220v220h-230h-230zM2368,423c84,-61 81,-201 -6,-255c-49,-30 -128,-30 -171,1c-47,34 -64,74 -59,142c5,65 28,100 83,125c40,19 119,12 153,-13z"></path><path d="M2230,348c-27,-30 -26,-73 5,-103c29,-29 55,-32 84,-7c32,26 37,72 11,105c-27,34 -71,36 -100,5z"></path><path d="M2550,300v-220h235h235v220v220h-235h-235zM2835,436c18,-8 38,-23 44,-34c15,-27 14,-75 -1,-90c-8,-8 -8,-12 -1,-12c17,0 31,-52 22,-85c-14,-51 -43,-65 -141,-65h-88v150v150h65c36,0 81,-6 100,-14z"></path><path d="M2750,349c0,-16 5,-20 27,-17c17,2 29,10 31,21c3,13 -3,17 -27,17c-25,0 -31,-4 -31,-21z"></path><path d="M2750,239c0,-17 5,-20 32,-17c22,2 34,9 36,21c3,14 -4,17 -32,17c-30,0 -36,-4 -36,-21z"></path></g></g></g></g></g></svg>