<svg version="1.1" xmlns="http://www.w3.org/2000/svg" xmlns:xlink="http://www.w3.org/1999/xlink" width="800px" height="800px" viewBox="0,0,256,256"><g fill="none" fill-rule="nonzero" stroke="none" stroke-width="1" stroke-linecap="butt" stroke-linejoin="miter" stroke-miterlimit="10" stroke-dasharray="" stroke-dashoffset="0" font-family="none" font-weight="none" font-size="none" text-anchor="none" style="mix-blend-mode: normal"><g transform="translate(0.00025,-0.00025) scale(0.5,0.5)"><circle cx="367.369" cy="161.604" r="84.828" fill="#1500ff"></circle><g fill-opacity="0.94902" fill="#2d527c"><path d="M367.367,260.348c-26.374,0 -51.169,-10.271 -69.818,-28.919c-5.429,-5.429 -5.429,-14.233 0,-19.664c5.431,-5.428 14.232,-5.428 19.664,0c27.656,27.656 72.653,27.656 100.31,0c13.398,-13.396 20.774,-31.207 20.774,-50.154c0,-18.947 -7.377,-36.759 -20.774,-50.154c-27.656,-27.656 -72.653,-27.656 -100.31,0c-5.431,5.428 -14.232,5.428 -19.664,0c-5.429,-5.429 -5.429,-14.233 0,-19.664c18.649,-18.648 43.444,-28.919 69.818,-28.919c26.374,0 51.169,10.271 69.818,28.919c18.648,18.649 28.919,43.444 28.919,69.818c0,26.374 -10.271,51.169 -28.919,69.818c-18.648,18.648 -43.443,28.919 -69.818,28.919z"></path><path d="M374.166,155.225v-24.161c9.644,1.691 11.094,7.037 11.312,10.18c0.056,0.805 0.72,1.428 1.528,1.428h10.534c0.884,0 1.581,-0.748 1.535,-1.632c-0.684,-13.252 -9.766,-21.778 -24.909,-23.692v-8.125c0,-0.847 -0.687,-1.534 -1.534,-1.534h-10.532c-0.847,0 -1.534,0.687 -1.534,1.534v8.125c-15.754,1.992 -24.951,11.141 -24.951,25.325c0,14.184 9.195,23.332 24.951,25.325v24.161c-9.644,-1.691 -11.094,-7.037 -11.312,-10.18c-0.056,-0.805 -0.72,-1.428 -1.528,-1.428h-10.534c-0.884,0 -1.581,0.748 -1.535,1.632c0.684,13.252 9.766,21.778 24.909,23.692v8.125c0,0.847 0.687,1.534 1.534,1.534h10.532c0.847,0 1.534,-0.687 1.534,-1.534v-8.125c15.754,-1.992 24.951,-11.141 24.951,-25.325c0,-14.184 -9.195,-23.334 -24.951,-25.325zM360.567,154.28c-11.348,-1.99 -11.351,-9.04 -11.351,-11.608c0,-2.567 0.003,-9.619 11.351,-11.608zM374.166,192.157v-23.217c11.348,1.99 11.351,9.042 11.351,11.608c0,2.566 -0.002,9.62 -11.351,11.609z"></path></g><path d="M60.539,186.447c25.596,0 46.346,20.75 46.346,46.346c0,25.596 -20.749,46.346 -46.346,46.346c-25.596,0 -46.346,-20.75 -46.346,-46.346c0,-25.596 20.75,-46.346 46.346,-46.346h-46.635v248.771h93.272v-248.771z" fill="#1500ff"></path><path d="M461.604,328.968h-123.456c0.214,-1.806 0.335,-3.632 0.335,-5.478c0,-12.394 -4.884,-24.036 -13.816,-32.844l-81.816,-79.646c-12.753,-12.372 -29.611,-19.186 -47.472,-19.186h-74.302v-5.366c0,-7.678 -6.226,-13.904 -13.904,-13.904h-93.269c-7.678,0.001 -13.904,6.227 -13.904,13.905v248.773c0,7.678 6.226,13.904 13.904,13.904h93.27c7.678,0 13.904,-6.226 13.904,-13.904v-6.471l178.819,-0.031c7.678,-0.001 13.902,-6.228 13.901,-13.907c-0.001,-7.678 -6.228,-13.902 -13.907,-13.901l-178.814,0.031v-181.321h74.302c10.591,0 20.574,4.027 28.09,11.319l81.735,79.568c3.527,3.479 5.47,8.088 5.47,12.982c0,4.894 -1.941,9.503 -5.475,12.988l-0.1,0.099c-7.412,7.309 -19.471,7.308 -26.88,0l-86.29,-85.096c-5.467,-5.393 -14.272,-5.332 -19.663,0.138c-5.392,5.468 -5.331,14.271 0.138,19.663l58.498,57.689h-55.292c-7.678,0 -13.904,6.226 -13.904,13.904c0,7.678 6.226,13.904 13.904,13.904h81.735c0.563,0 1.114,-0.043 1.659,-0.108c9.05,8.762 20.848,13.152 32.653,13.15c11.761,0 23.52,-4.36 32.559,-13.061c0.122,0.003 0.241,0.018 0.363,0.018h137.023c12.455,0 22.588,9.907 22.588,22.085c0,12.177 -10.133,22.084 -22.588,22.084h-96.172c-7.678,0 -13.904,6.226 -13.904,13.904c0,7.678 6.226,13.904 13.904,13.904h96.172c27.788,0 50.396,-22.381 50.396,-49.891c0.001,-27.513 -22.606,-49.897 -50.394,-49.897zM60.539,200.351c17.887,0 32.441,14.553 32.441,32.442c0,17.887 -14.553,32.441 -32.441,32.441c-17.889,0 -32.442,-14.553 -32.442,-32.441c0,-17.889 14.553,-32.442 32.442,-32.442zM93.27,421.316h-65.462v-137.962c9.43,6.126 20.672,9.687 32.731,9.687c12.059,0 23.302,-3.562 32.731,-9.687z" fill-opacity="0.94902" fill="#2d527c"></path></g></g></svg>