<svg version="1.1" xmlns="http://www.w3.org/2000/svg" xmlns:xlink="http://www.w3.org/1999/xlink" width="800px" height="800px" viewBox="0,0,256,256"><g fill="#0b32cb" fill-rule="nonzero" stroke="none" stroke-width="1" stroke-linecap="butt" stroke-linejoin="miter" stroke-miterlimit="10" stroke-dasharray="" stroke-dashoffset="0" font-family="none" font-weight="none" font-size="none" text-anchor="none" style="mix-blend-mode: normal"><g transform="scale(0.51716,0.51716)"><g><path d="M425.686,0h-356.356c-7.857,0 -14.25,6.393 -14.25,14.25v466.516c0,7.857 6.393,14.25 14.25,14.25h356.356c7.857,0 14.25,-6.393 14.25,-14.25v-466.516c0,-7.857 -6.393,-14.25 -14.25,-14.25zM63.58,429.978h96.244c2.347,0 4.25,-1.902 4.25,-4.25c0,-2.348 -1.903,-4.25 -4.25,-4.25h-96.244v-21.498h27.247c2.347,0 4.25,-1.902 4.25,-4.25c0,-2.348 -1.903,-4.25 -4.25,-4.25h-27.247v-210.49h55.746c2.347,0 4.25,-1.902 4.25,-4.25c0,-2.348 -1.903,-4.25 -4.25,-4.25h-55.746v-36.498h367.856v261.488h-66.123c-2.347,0 -4.25,1.902 -4.25,4.25c0,2.348 1.903,4.25 4.25,4.25h66.123v19.998h-25.625c-2.347,0 -4.25,1.902 -4.25,4.25c0,2.348 1.903,4.25 4.25,4.25h25.625v13.998h-367.856zM69.33,8.5h356.356c3.17,0 5.75,2.579 5.75,5.75v113.242h-367.856v-113.242c0,-3.171 2.579,-5.75 5.75,-5.75zM425.686,486.516h-356.356c-3.17,0 -5.75,-2.579 -5.75,-5.75v-23.789h367.856v23.789c0,3.17 -2.58,5.75 -5.75,5.75z"></path><path d="M247.508,158.154c-73.471,0 -133.243,59.772 -133.243,133.242c0,73.47 59.773,133.242 133.243,133.242c73.47,0 133.243,-59.772 133.243,-133.242c0,-73.469 -59.773,-133.242 -133.243,-133.242zM247.508,416.139c-68.784,0 -124.743,-55.959 -124.743,-124.742c0,-68.783 55.96,-124.742 124.743,-124.742c68.783,0 124.743,55.959 124.743,124.742c0,68.783 -55.959,124.742 -124.743,124.742z"></path><path d="M247.508,188.707c-56.623,0.002 -102.688,46.068 -102.688,102.69c0,56.623 46.065,102.689 102.688,102.689c56.623,0 102.688,-46.065 102.688,-102.688c0,-56.624 -46.066,-102.691 -102.688,-102.691zM247.508,197.207c51.935,0 94.188,42.254 94.188,94.191c0,1.912 -0.064,3.809 -0.177,5.692c-13.22,-0.528 -20.181,-4.804 -27.521,-9.315c-8.502,-5.226 -17.294,-10.629 -34.767,-10.629c-17.472,0 -26.264,5.403 -34.766,10.629c-7.841,4.819 -15.247,9.371 -30.316,9.371c-15.048,0 -22.25,-4.515 -29.875,-9.295c-7.563,-4.74 -15.382,-9.614 -29.912,-10.453c6.781,-45.32 45.967,-80.189 93.146,-80.191zM247.508,385.586c-51.936,0 -94.188,-42.253 -94.188,-94.189c0,-1.858 0.06,-3.703 0.167,-5.535c12.635,0.666 19.286,4.811 26.271,9.191c8.308,5.208 16.899,10.594 34.391,10.594c17.473,0 26.264,-5.403 34.767,-10.629c7.841,-4.819 15.247,-9.371 30.315,-9.371c15.069,0 22.475,4.552 30.316,9.371c7.881,4.844 16.024,9.832 31.085,10.536c-6.848,45.244 -45.999,80.032 -93.124,80.032z"></path><path d="M379.983,94.033c14.75,0 26.749,-11.999 26.749,-26.748c0,-14.75 -11.999,-26.75 -26.749,-26.75c-14.75,0 -26.749,12 -26.749,26.75c0,14.749 12,26.748 26.749,26.748zM379.983,49.035c10.063,0 18.249,8.187 18.249,18.25c0,10.062 -8.186,18.248 -18.249,18.248c-10.063,0 -18.249,-8.187 -18.249,-18.248c0,-10.063 8.187,-18.25 18.249,-18.25z"></path><path d="M258.491,86.537c10.614,0 19.25,-8.636 19.25,-19.25c0,-10.614 -8.636,-19.25 -19.25,-19.25c-10.614,0 -19.25,8.636 -19.25,19.25c0,10.614 8.636,19.25 19.25,19.25zM258.491,56.537c5.928,0 10.75,4.822 10.75,10.75c0,5.928 -4.822,10.75 -10.75,10.75c-5.928,0 -10.75,-4.822 -10.75,-10.75c0,-5.928 4.823,-10.75 10.75,-10.75z"></path><path d="M312.491,86.537c10.614,0 19.25,-8.636 19.25,-19.25c0,-10.614 -8.636,-19.25 -19.25,-19.25c-10.614,0 -19.25,8.636 -19.25,19.25c0,10.614 8.636,19.25 19.25,19.25zM312.491,56.537c5.928,0 10.75,4.822 10.75,10.75c0,5.928 -4.822,10.75 -10.75,10.75c-5.928,0 -10.75,-4.822 -10.75,-10.75c0,-5.928 4.823,-10.75 10.75,-10.75z"></path><path d="M100.496,101.533h105.994c7.857,0 14.25,-6.393 14.25,-14.25v-39.996c0,-7.857 -6.393,-14.25 -14.25,-14.25h-105.994c-7.857,0 -14.25,6.393 -14.25,14.25v39.996c0,7.858 6.393,14.25 14.25,14.25zM94.746,47.287c0,-3.171 2.58,-5.75 5.75,-5.75h105.994c3.17,0 5.75,2.579 5.75,5.75v39.996c0,3.171 -2.58,5.75 -5.75,5.75h-105.994c-3.17,0 -5.75,-2.579 -5.75,-5.75z"></path></g></g></g></svg>